<?xml version="1.0" encoding="utf-8"?>
<!-- Generator: Adobe Illustrator 27.3.1, SVG Export Plug-In . SVG Version: 6.00 Build 0)  -->
<svg version="1.1" id="Layer_1" xmlns="http://www.w3.org/2000/svg" xmlns:xlink="http://www.w3.org/1999/xlink" x="0px" y="0px"
	 viewBox="0 0 1148 296" style="enable-background:new 0 0 1148 296;" xml:space="preserve">
<style type="text/css">
	.st0{fill:#FFFFFF;}
	.st1{fill:#E42527;}
</style>
<g>
	<g>
		<path d="M320.4,140.8H343l21.7,84l23.5-84h18.7l23.9,84.5l21.8-84.5h20.8L443,255.7h-22.1l-24-83.3l-24.6,83.3H351L320.4,140.8z"
			/>
		<path d="M522.5,169.8c25.5,0,45.1,17.9,45.1,43.6c0,26.4-20.6,43.8-46,43.8c-25.6,0-46.1-17.7-46.1-43.4
			C475.5,187.5,497.2,169.8,522.5,169.8z M546,213.6c0-15.5-7.8-28.3-24.3-28.3c-17,0-23.7,13.5-23.7,28.9
			c0,14.9,7.9,27.6,24.2,27.6C539,241.8,546,228.3,546,213.6z"/>
		<path d="M582.3,171.6h20.1v15.8c5.7-11.5,14.8-17,27.6-17V189c-16.2,0-27.6,5.3-27.6,23.3v43.4h-20.1V171.6z"/>
		<path d="M645.9,133.6H666v74.7l30.4-36.6h22.1l-33.4,38.5l35.9,45.5h-23.2l-31.9-41v41h-20.1V133.6z"/>
		<path d="M733.5,171.6h20.1v13.6c5.8-9.8,17.6-15.4,28.8-15.4c25.7,0,38.1,20.6,38.1,43.6c0,23.6-13.2,43.9-37.5,43.9
			c-11.8,0-23.7-4.7-29.3-14.8v42h-20.1V171.6z M799.7,212.9c0-14.2-7.1-27.4-23.5-27.4c-16.6,0-23.3,13.3-23.3,28.4
			c0,15.6,7.2,27.6,23.9,27.6C794.6,241.6,799.7,228.4,799.7,212.9z"/>
		<path d="M837.5,137.6l20.1-8.7v126.8h-20.1V137.6z"/>
		<path d="M928.3,245.4c-6.4,8.5-15.7,11.8-26.1,11.8c-15.8,0-28.2-8-28.2-24.5c0-23.3,24.6-27,44.2-27h9.9v-1.3
			c0-12-2.8-19.6-16.4-19.6c-8.2,0-15.7,4.2-18.7,12l-15.6-6.7c5.6-14.8,21.3-20.2,36.3-20.2c19.9,0,34.3,9.6,34.3,30.9v54.9h-19.8
			V245.4z M918.1,218.1c-9.3,0-24,1.1-24,13.8c0,8.1,5.9,11.1,13.4,11.1c10.2,0,20.7-5.3,20.7-16.7v-8.2H918.1z"/>
		<path d="M1045.1,231.9c-5.6,17.6-21.3,25.3-38.8,25.3c-26.7,0-42.6-17.9-42.6-43.9c0-25,17.8-43.6,43.1-43.6
			c17,0,31.7,7.1,37.9,23.6l-16.2,7.1c-3.4-9.4-11.5-14.8-21.7-14.8c-16.4,0-22.4,14.2-22.4,28.6c0,14.8,6.5,27.6,22.8,27.6
			c11.5,0,19.3-6.4,22.8-16.9L1045.1,231.9z"/>
		<path d="M1136.1,237.4c-7,14.8-22.1,19.9-37.5,19.9c-26.5,0-43.2-17.7-43.2-43.9c0-24.6,17-43.6,42.3-43.6
			c27.2,0,40.4,15.9,40.4,48.3h-62.2c0,14.2,8.2,24.6,23.5,24.6c9.1,0,16.6-3.7,21-12.2L1136.1,237.4z M1118.1,204.9
			c-0.6-12.7-8.3-20.5-20.2-20.5c-12.6,0-20,8.9-21.7,20.5H1118.1z"/>
	</g>
	<g>
		<path d="M329.8,104.4l37-53.4h-33.2V40.5h50.6v5.2l-36.1,53.4h35v10.5h-53.3V104.4z"/>
		<path d="M415.8,58c15.4,0,27.2,10.8,27.2,26.3c0,15.9-12.4,26.4-27.7,26.4c-15.4,0-27.8-10.7-27.8-26.1
			C387.5,68.6,400.6,58,415.8,58z M430,84.3c0-9.3-4.7-17.1-14.7-17.1c-10.2,0-14.3,8.1-14.3,17.4c0,9,4.8,16.6,14.6,16.6
			C425.7,101.3,430,93.2,430,84.3z"/>
		<path d="M451.8,36.1h12.1v31c3.3-6.3,9.9-9.1,16.9-9.1c12.1,0,18.2,8.5,18.2,20v31.7h-12.2V79.2c0-7.3-3.8-11.3-10.8-11.3
			c-7.8,0-12.1,4.8-12.1,12v29.7h-12.1V36.1z"/>
		<path d="M535.2,58c15.4,0,27.2,10.8,27.2,26.3c0,15.9-12.4,26.4-27.7,26.4c-15.4,0-27.8-10.7-27.8-26.1
			C506.8,68.6,519.9,58,535.2,58z M549.3,84.3c0-9.3-4.7-17.1-14.7-17.1c-10.2,0-14.3,8.1-14.3,17.4c0,9,4.8,16.6,14.6,16.6
			C545.1,101.3,549.3,93.2,549.3,84.3z"/>
	</g>
</g>
<path class="st1" d="M265.2,78.3c0-1.9-1.1-3.9-2.8-4.9L141.7,3.8c-1.8-1-3.9-1-5.7,0L15.3,73.4c-1.6,1-2.9,2.8-2.8,4.9v139.3
	c0,2,1.1,3.9,2.8,4.9L136,292.2c1.5,0.9,3.7,1.1,5.7,0l120.7-69.6c1.8-1,2.8-2.9,2.8-4.9V78.3C265.2,78.3,265.2,78.3,265.2,78.3z
	 M138.8,15.2l109.3,63.1l-61,35.2L151.4,93c4.2-3.6,6.9-8.9,6.9-14.9c0-10.8-8.8-19.5-19.5-19.5s-19.5,8.8-19.5,19.5
	c0,6,2.7,11.4,7,15l-35.6,20.6L29.5,78.4L138.8,15.2z M73.8,175.3L73.8,175.3c1.4-0.8,2.9-1.2,4.4-1.2c3.1,0,6,1.6,7.7,4.4
	c2.4,4.2,1,9.7-3.2,12.1c-4.2,2.4-9.7,1-12.1-3.2c-1.2-2-1.5-4.4-0.9-6.7C70.3,178.4,71.8,176.5,73.8,175.3z M138.7,86.9
	c-4.9,0-8.9-4-8.9-8.9c0-4.9,4-8.9,8.9-8.9s8.9,4,8.9,8.9C147.6,82.9,143.6,86.9,138.7,86.9z M138.8,98.8l36.9,21.3l-36.9,21.3
	l-36.9-21.3L138.8,98.8z M144.5,151.3l36.9-21.3v42.6l-36.9,21.3V151.3z M23.8,88.2l61,35.2v41.2c-0.5-0.2-1.1-0.3-1.6-0.5
	c-5.1-1.3-10.3-0.7-14.8,2l0,0c-4.5,2.6-7.8,6.8-9.1,11.9c-1.3,5-0.7,10.3,2,14.8c2.6,4.5,6.8,7.8,11.9,9.1c1.7,0.5,3.4,0.7,5.1,0.7
	c3.4,0,6.8-0.9,9.8-2.6c5.2-3,8.5-8,9.4-13.5l17.5,10.1c0.9,0.5,1.9,0.8,2.8,0.8c2,0,3.9-1,4.9-2.8c1.6-2.7,0.6-6.2-2.1-7.8
	l-24.5-14.1V130l36.9,21.3v126.2L23.8,214.4V88.2z M144.5,277.5V207l45.4-26.2c1.8-1,2.8-2.9,2.8-4.9v-52.5l61-35.2v126.2
	L144.5,277.5z"/>
</svg>
